<?xml version="1.0" encoding="utf-8"?>
<!-- Generator: Adobe Illustrator 16.0.0, SVG Export Plug-In . SVG Version: 6.00 Build 0)  -->
<!DOCTYPE svg PUBLIC "-//W3C//DTD SVG 1.1//EN" "http://www.w3.org/Graphics/SVG/1.1/DTD/svg11.dtd">
<svg version="1.1" id="Layer_1" xmlns="http://www.w3.org/2000/svg" xmlns:xlink="http://www.w3.org/1999/xlink" x="0px" y="0px"
	 width="70px" height="70px" viewBox="0 0 70 70" enable-background="new 0 0 70 70" xml:space="preserve">
<circle fill="#FFFFFF" cx="35" cy="35" r="35"/>
<path fill="#037088" d="M48.009,24.63c0.13,1.495,0.017,2.99-0.341,4.485s-0.764,2.6-1.219,3.315l-0.585,0.975
	c0.065-1.17,0-2.551-0.195-4.144c-0.194-1.593-0.422-2.877-0.682-3.852l-0.39-1.463c-0.521-0.13-1.04-0.194-1.56-0.194
	c-0.521,0-1.008,0.032-1.463,0.098l-0.584,0.097c0.13,1.95-0.179,3.803-0.927,5.558c-0.747,1.756-1.607,3.056-2.583,3.9
	c0.195-1.625,0.261-3.055,0.195-4.29s-0.195-2.242-0.39-3.022l-0.293-1.072c-0.649-0.195-1.413-0.31-2.29-0.342
	c-0.878-0.032-1.608-0.017-2.193,0.049h-0.877c0.194,1.56,0.113,3.071-0.243,4.534c-0.357,1.462-0.764,2.551-1.219,3.266
	L29.489,33.6c0.194-1.039,0.163-2.242-0.097-3.607c-0.261-1.365-0.521-2.438-0.78-3.217l-0.487-1.268
	c-0.52,0-1.121,0.032-1.804,0.098c-0.682,0.064-1.251,0.13-1.706,0.194l-0.682,0.098c0.39,0.715,0.617,1.723,0.682,3.022
	c0.065,1.301,0,2.405-0.194,3.315l-0.194,1.462c-0.261-1.3-0.65-2.535-1.17-3.704c-0.521-1.171-1.008-1.983-1.463-2.438
	l-0.584-0.779c-3.379,1.43-5.881,3.038-7.506,4.826c-1.625,1.787-2.371,3.445-2.242,4.973c0.131,1.527,0.748,2.925,1.853,4.192
	s2.567,2.227,4.386,2.876c3.704,1.3,9.52,1.999,17.447,2.097c7.928,0.097,14.491-0.797,19.689-2.682
	c1.819-0.78,3.103-1.853,3.85-3.217c0.748-1.365,0.942-2.796,0.585-4.29c-0.357-1.495-1.007-2.975-1.949-4.437
	c-0.942-1.463-2.226-2.779-3.85-3.949C51.647,25.995,49.893,25.15,48.009,24.63L48.009,24.63z"/>
</svg>
