<?xml version="1.0" encoding="utf-8"?>
<!-- Generator: Adobe Illustrator 16.0.0, SVG Export Plug-In . SVG Version: 6.00 Build 0)  -->
<!DOCTYPE svg PUBLIC "-//W3C//DTD SVG 1.1//EN" "http://www.w3.org/Graphics/SVG/1.1/DTD/svg11.dtd">
<svg version="1.1" id="Layer_1" xmlns="http://www.w3.org/2000/svg" xmlns:xlink="http://www.w3.org/1999/xlink" x="0px" y="0px"
	 width="350px" height="92.305px" viewBox="0 0 350 92.305" enable-background="new 0 0 350 92.305" xml:space="preserve">
<g>
	<g>
		<path fill="#98D1E1" d="M102.856,4.402c8.293,0,16.977,2.139,25.089,6.619c22.554,12.454,32.151,38.278,21.436,57.681
			c-6.859,12.424-20.384,19.201-35.144,19.201c-8.293,0-16.976-2.139-25.088-6.618c-22.554-12.456-32.15-38.279-21.435-57.683
			C74.572,11.18,88.096,4.402,102.856,4.402 M102.858,0h-0.002C85.862,0,71.284,8.029,63.859,21.474
			C51.988,42.969,62.378,71.53,87.02,85.139c8.492,4.688,17.903,7.166,27.217,7.166c16.994,0,31.573-8.028,38.998-21.476
			c5.812-10.522,6.533-22.991,2.031-35.107C150.85,23.841,141.903,13.7,130.073,7.168C121.582,2.479,112.17,0,102.858,0L102.858,0z"
			/>
		<g>
			<g>
				<g>
					<g>
						<g>
							<path fill="#005287" d="M104.764,38.937c1.52,1.341,2.326,3.177,2.326,5.277c0,3.712-2.73,7.068-6.71,8.276
								c-2.235,0.671-2.818,0.714-7.918,0.714H80.253h-1.745c-1.701,0-2.326-0.402-2.326-1.387c0-0.804,0.402-1.206,2.19-2.101
								c2.505-1.253,2.774-1.609,3.131-3.936c0.09-0.718,0.179-1.21,0.268-1.612l2.372-13.46c0.178-1.077,0.269-1.791,0.269-2.104
								c0-0.538-0.313-0.894-1.477-1.698l-0.938-0.627c-0.717-0.447-0.986-0.849-0.986-1.432c0-1.296,0.403-1.432,4.43-1.432h9.659
								c5.548,0,6.128,0.045,8.096,0.583c0.896,0.269,1.79,0.759,2.596,1.432c1.432,1.206,2.146,2.773,2.146,4.651
								c0,3.444-2.104,5.948-6.083,7.201C103.377,37.907,103.957,38.221,104.764,38.937z M88.616,46.72
								c-0.045,0.267-0.045,0.58-0.045,0.759c0,0.85,0.673,1.072,3.221,1.072c4.518,0,7.247-1.878,7.247-5.051
								c0-2.687-1.431-3.491-5.995-3.491c-1.743,0-2.013,0-3.22,0.045L88.616,46.72z M91.882,35.046
								c4.517,0,5.861-0.314,7.021-1.567c0.716-0.759,1.118-1.788,1.118-2.771c0-1.879-1.251-2.552-4.92-2.552
								c-2.593,0-3.264,0.314-3.486,1.655l-0.896,5.234H91.882z"/>
						</g>
					</g>
				</g>
				<g>
					<g>
						<g>
							<path fill="#005287" d="M130.875,57.18c1.387,2.325,2.28,3.488,3.444,4.608c1.251,1.251,2.371,1.879,3.533,2.055l0.402,0.045
								c1.029,0.181,1.477,0.583,1.477,1.299c0,1.387-2.013,2.371-4.741,2.371c-4.429,0-7.917-2.55-11.049-8.053
								c-1.117-2.012-2.639-5.053-3.353-6.751c-0.494-1.12-0.667-1.41-0.667-1.902c0-0.85,0.444-1.589,1.472-1.589h0.089
								l0.983,0.045h0.178c3.892,0,6.486-1.969,6.486-4.83c0-2.06-1.386-2.773-5.232-2.773c-2.685,0-4.08,0.269-4.349,1.788
								l-2.817,15.967c-0.179,1.03-0.314,1.791-0.314,2.103c0,0.537,0.314,0.895,1.521,1.702l0.894,0.623
								c0.716,0.493,0.985,0.85,0.985,1.432c0,1.342-0.404,1.432-4.383,1.432h-7.515h-1.788c-1.655,0-1.422-0.401-1.422-1.386
								c0-0.805-0.457-1.208,1.289-2.101c2.547-1.255,2.816-1.612,3.175-3.938c0.089-0.716,0.178-1.208,0.224-1.612l2.371-13.46
								c0.223-1.073,0.313-1.789,0.313-2.103c0-0.537-0.313-0.894-1.522-1.7l-0.894-0.625c-0.716-0.447-0.983-0.849-0.983-1.432
								c0-1.296,0.403-1.432,4.382-1.432h10.118c5.77,0,7.426,0.136,9.572,0.939c1.251,0.447,2.326,1.298,3.131,2.459
								c0.85,1.208,1.297,2.683,1.297,4.205c0,3.265-2.103,6.531-5.098,8.007c-0.896,0.447-1.164,0.537-2.999,1.163
								C129.623,55.078,129.846,55.525,130.875,57.18z"/>
						</g>
					</g>
				</g>
			</g>
		</g>
	</g>
	<g>
		<g>
			<path fill="#595959" d="M4.563,39.461H0.45c-0.26,0-0.45-0.213-0.45-0.449v-0.686c0-0.236,0.189-0.449,0.45-0.449h10.025
				c0.26,0,0.449,0.213,0.449,0.449v0.686c0,0.236-0.189,0.449-0.449,0.449H6.361V53.98c0,0.237-0.213,0.449-0.449,0.449H5.013
				c-0.237,0-0.45-0.212-0.45-0.449V39.461z"/>
			<path fill="#595959" d="M16.358,38.326c0-0.236,0.212-0.449,0.449-0.449h0.922c0.26,0,0.449,0.213,0.449,0.449v6.904h9.6v-6.904
				c0-0.236,0.189-0.449,0.449-0.449h0.922c0.237,0,0.45,0.213,0.45,0.449V53.98c0,0.237-0.213,0.449-0.45,0.449h-0.922
				c-0.26,0-0.449-0.212-0.449-0.449v-7.165h-9.6v7.165c0,0.237-0.189,0.449-0.449,0.449h-0.922c-0.237,0-0.449-0.212-0.449-0.449
				V38.326z"/>
			<path fill="#595959" d="M37.254,38.326c0-0.236,0.189-0.449,0.449-0.449h9.316c0.26,0,0.449,0.213,0.449,0.449v0.686
				c0,0.236-0.189,0.449-0.449,0.449h-7.944v5.769h6.786c0.236,0,0.449,0.213,0.449,0.45v0.686c0,0.26-0.213,0.449-0.449,0.449
				h-6.786v6.03h7.944c0.26,0,0.449,0.213,0.449,0.449v0.686c0,0.237-0.189,0.449-0.449,0.449h-9.316
				c-0.26,0-0.449-0.212-0.449-0.449V38.326z"/>
		</g>
	</g>
	<g>
		<g>
			<path fill="#595959" d="M169.074,38.326c0-0.236,0.189-0.449,0.449-0.449h9.315c0.261,0,0.449,0.213,0.449,0.449v0.686
				c0,0.236-0.188,0.449-0.449,0.449h-7.944v6.479h6.786c0.236,0,0.449,0.213,0.449,0.449v0.686c0,0.236-0.213,0.449-0.449,0.449
				h-6.786v6.456c0,0.237-0.213,0.449-0.449,0.449h-0.922c-0.26,0-0.449-0.212-0.449-0.449V38.326z"/>
			<path fill="#595959" d="M192.644,37.641c4.729,0,8.512,3.807,8.512,8.536c0,4.73-3.783,8.49-8.512,8.49
				c-4.729,0-8.488-3.76-8.488-8.49C184.155,41.447,187.914,37.641,192.644,37.641z M192.644,53.011c3.76,0,6.856-3.074,6.856-6.835
				c0-3.759-3.097-6.88-6.856-6.88s-6.834,3.121-6.834,6.88C185.81,49.937,188.884,53.011,192.644,53.011z"/>
			<path fill="#595959" d="M214.887,37.641c4.729,0,8.513,3.807,8.513,8.536c0,4.73-3.783,8.49-8.513,8.49
				c-4.729,0-8.488-3.76-8.488-8.49C206.398,41.447,210.158,37.641,214.887,37.641z M214.887,53.011c3.76,0,6.857-3.074,6.857-6.835
				c0-3.759-3.098-6.88-6.857-6.88s-6.833,3.121-6.833,6.88C208.054,49.937,211.127,53.011,214.887,53.011z"/>
			<path fill="#595959" d="M229.848,38.326c0-0.236,0.189-0.449,0.426-0.449h5.296c4.563,0,8.3,3.712,8.3,8.252
				c0,4.588-3.736,8.3-8.3,8.3h-5.296c-0.236,0-0.426-0.212-0.426-0.449V38.326z M235.191,52.798c3.878,0,6.691-2.767,6.691-6.669
				c0-3.878-2.813-6.645-6.691-6.645h-3.547v13.313H235.191z"/>
			<path fill="#595959" d="M265.754,37.641c2.388,0,4.113,0.828,5.722,2.199c0.189,0.189,0.213,0.473,0.023,0.662
				c-0.213,0.213-0.473,0.45-0.662,0.662c-0.213,0.237-0.354,0.213-0.614-0.023c-1.206-1.064-2.908-1.844-4.493-1.844
				c-3.735,0-6.573,3.121-6.573,6.786c0,3.642,2.838,6.834,6.573,6.834c2.602,0,4.257-0.993,4.257-0.993v-3.312h-2.72
				c-0.26,0-0.449-0.189-0.449-0.426v-0.875c0-0.26,0.189-0.449,0.449-0.449h4.091c0.236,0,0.426,0.213,0.426,0.449v5.416
				c0,0.118-0.095,0.308-0.189,0.379c0,0-2.412,1.561-5.84,1.561c-4.729,0-8.536-3.76-8.536-8.49
				C257.218,41.447,261.024,37.641,265.754,37.641z"/>
			<path fill="#595959" d="M278.562,38.326c0-0.236,0.189-0.449,0.449-0.449h6.124c2.838,0,5.154,2.223,5.154,5.037
				c0,2.175-1.442,3.996-3.499,4.823l3.239,6.007c0.165,0.308,0,0.686-0.402,0.686h-1.205c-0.213,0-0.331-0.118-0.379-0.212
				l-3.145-6.268h-4.517v6.03c0,0.237-0.213,0.449-0.449,0.449h-0.922c-0.26,0-0.449-0.212-0.449-0.449V38.326z M285.018,46.389
				c1.82,0,3.405-1.513,3.405-3.452c0-1.797-1.585-3.334-3.405-3.334h-4.587v6.786H285.018z"/>
			<path fill="#595959" d="M304.308,37.641c4.729,0,8.512,3.807,8.512,8.536c0,4.73-3.783,8.49-8.512,8.49
				c-4.729,0-8.488-3.76-8.488-8.49C295.819,41.447,299.578,37.641,304.308,37.641z M304.308,53.011c3.76,0,6.856-3.074,6.856-6.835
				c0-3.759-3.097-6.88-6.856-6.88s-6.833,3.121-6.833,6.88C297.475,49.937,300.548,53.011,304.308,53.011z"/>
			<path fill="#595959" d="M319.056,38.326c0-0.236,0.213-0.449,0.449-0.449h0.898c0.26,0,0.449,0.213,0.449,0.449v9.86
				c0,2.697,1.679,4.801,4.445,4.801c2.79,0,4.492-2.057,4.492-4.753v-9.908c0-0.236,0.189-0.449,0.449-0.449h0.898
				c0.237,0,0.449,0.213,0.449,0.449v10.002c0,3.595-2.554,6.338-6.289,6.338c-3.712,0-6.242-2.743-6.242-6.338V38.326z"/>
			<path fill="#595959" d="M339.029,38.326c0-0.236,0.188-0.449,0.449-0.449h5.226c2.908,0,5.296,2.365,5.296,5.226
				c0,2.932-2.388,5.32-5.272,5.32h-3.901v5.558c0,0.237-0.213,0.449-0.449,0.449h-0.898c-0.261,0-0.449-0.212-0.449-0.449V38.326z
				 M344.586,46.673c1.938,0,3.594-1.584,3.594-3.618c0-1.915-1.655-3.381-3.594-3.381h-3.76v6.999H344.586z"/>
		</g>
	</g>
</g>
</svg>
