<?xml version="1.0" encoding="utf-8"?>
<!-- Generator: Adobe Illustrator 16.0.0, SVG Export Plug-In . SVG Version: 6.00 Build 0)  -->
<!DOCTYPE svg PUBLIC "-//W3C//DTD SVG 1.1//EN" "http://www.w3.org/Graphics/SVG/1.1/DTD/svg11.dtd">
<svg version="1.1" id="Layer_1" xmlns="http://www.w3.org/2000/svg" xmlns:xlink="http://www.w3.org/1999/xlink" x="0px" y="0px"
	 width="40.002px" height="26.006px" viewBox="14.999 21.997 40.002 26.006" enable-background="new 14.999 21.997 40.002 26.006"
	 xml:space="preserve">
<path fill="#037088" d="M14.999,21.997v1.34v1.931v19.464v0.701v2.569h40.002v-2.569v-0.701V25.269v-1.932v-1.34H14.999z
	 M51.667,42.543l-9.403-8.134l9.403-6.591V42.543L51.667,42.543z M18.332,27.68l9.525,6.679l-9.525,8.359V27.68z M35.095,35.395
	L20.65,25.269h28.895L35.095,35.395z M30.65,36.316l4.425,3.104l0.011,0.017l0.009-0.006l0.005,0.006l0.009-0.017l4.36-3.052
	l9.666,8.365H21.057L30.65,36.316z"/>
</svg>
