<?xml version="1.0" encoding="utf-8"?>
<!-- Generator: Adobe Illustrator 16.0.0, SVG Export Plug-In . SVG Version: 6.00 Build 0)  -->
<!DOCTYPE svg PUBLIC "-//W3C//DTD SVG 1.1//EN" "http://www.w3.org/Graphics/SVG/1.1/DTD/svg11.dtd">
<svg version="1.1" id="Layer_1" xmlns="http://www.w3.org/2000/svg" xmlns:xlink="http://www.w3.org/1999/xlink" x="0px" y="0px"
	 width="70px" height="70px" viewBox="0 0 70 70" enable-background="new 0 0 70 70" xml:space="preserve">
<circle fill="#FFFFFF" cx="35" cy="35" r="35"/>
<path fill="#037088" d="M14.999,21.997v1.34v1.931v19.465v0.7v2.57h40.002v-2.57v-0.7V25.269v-1.932v-1.34H14.999z M51.667,42.543
	l-9.403-8.134l9.403-6.591V42.543L51.667,42.543z M18.332,27.68l9.525,6.679l-9.525,8.359V27.68z M35.095,35.395L20.65,25.269
	h28.895L35.095,35.395z M30.65,36.317l4.425,3.104l0.011,0.017l0.009-0.006l0.005,0.006l0.009-0.017l4.36-3.052l9.666,8.365H21.057
	L30.65,36.317z"/>
</svg>
