<?xml version="1.0" encoding="utf-8"?>
<!-- Generator: Adobe Illustrator 16.0.0, SVG Export Plug-In . SVG Version: 6.00 Build 0)  -->
<!DOCTYPE svg PUBLIC "-//W3C//DTD SVG 1.1//EN" "http://www.w3.org/Graphics/SVG/1.1/DTD/svg11.dtd">
<svg version="1.1" id="Layer_1" xmlns="http://www.w3.org/2000/svg" xmlns:xlink="http://www.w3.org/1999/xlink" x="0px" y="0px"
	 width="70px" height="70px" viewBox="0 0 70 70" enable-background="new 0 0 70 70" xml:space="preserve">
<circle fill="#FFFFFF" cx="35" cy="35" r="35"/>
<path fill="#037088" d="M46.064,39.478c1.373-2.242,2.061-4.688,2.061-7.337c0-3.924-1.387-7.261-4.158-10.013
	c-2.771-2.751-6.115-4.127-10.031-4.127s-7.26,1.376-10.031,4.127c-2.771,2.752-4.156,6.089-4.156,10.013
	c0,3.923,1.385,7.273,4.156,10.05c2.771,2.777,6.115,4.166,10.031,4.166c2.645,0,5.086-0.688,7.324-2.063l9.688,9.706l4.806-4.814
	L46.064,39.478L46.064,39.478z M33.936,40.93c-2.39,0-4.449-0.854-6.178-2.561c-1.73-1.707-2.594-3.771-2.594-6.19
	c0-2.421,0.863-4.483,2.594-6.19c1.729-1.707,3.788-2.586,6.178-2.637c2.441,0.051,4.514,0.93,6.217,2.637
	c1.704,1.707,2.557,3.77,2.557,6.19c0,2.42-0.853,4.483-2.557,6.19C38.449,40.076,36.377,40.93,33.936,40.93z"/>
</svg>
