<?xml version="1.0" encoding="utf-8"?>
<!-- Generator: Adobe Illustrator 16.0.0, SVG Export Plug-In . SVG Version: 6.00 Build 0)  -->
<!DOCTYPE svg PUBLIC "-//W3C//DTD SVG 1.1//EN" "http://www.w3.org/Graphics/SVG/1.1/DTD/svg11.dtd">
<svg version="1.1" id="Layer_1" xmlns="http://www.w3.org/2000/svg" xmlns:xlink="http://www.w3.org/1999/xlink" x="0px" y="0px"
	 width="50px" height="40px" viewBox="0 0 50 40" enable-background="new 0 0 50 40" xml:space="preserve">
<g>
	<g>
		<path fill="#037088" d="M25.274,7.307c8.427,0.081,13.704-0.429,14.417,8.645h10.274C49.966,1.895,37.348,0,25.008,0
			C12.666,0,0.05,1.895,0.05,15.951h10.194C11.034,6.704,16.919,7.227,25.274,7.307z M5.145,20.47c2.502,0,4.585,0.146,5.048-2.246
			c0.062-0.325,0.098-0.693,0.098-1.12H0C0,20.663,2.303,20.47,5.145,20.47z M39.663,17.104c0,0.43,0.035,0.799,0.105,1.12
			c0.488,2.205,2.568,2.068,5.062,2.068c2.856,0,5.17,0.183,5.17-3.188H39.663z M34.737,13.267c0-0.632-0.751-0.672-1.675-0.672
			H31.55c-0.926,0-1.673,0.04-1.673,0.672v2.163H19.178v-2.163c0-0.632-0.751-0.672-1.675-0.672H15.99
			c-0.926,0-1.675,0.04-1.675,0.672v2.648C11.878,18.376,3.902,28.851,3.613,30.12l0.003,8.463C3.617,39.364,4.271,40,5.075,40
			h38.902c0.804,0,1.458-0.636,1.458-1.417v-8.506c-0.286-1.23-8.26-11.701-10.698-14.162V13.267z M18.65,31.259
			c-0.784,0-1.418-0.616-1.418-1.378c0-0.761,0.635-1.378,1.418-1.378c0.783,0,1.418,0.617,1.418,1.378
			C20.068,30.643,19.433,31.259,18.65,31.259z M18.65,26.534c-0.784,0-1.418-0.617-1.418-1.378c0-0.762,0.635-1.378,1.418-1.378
			c0.783,0,1.418,0.616,1.418,1.378C20.068,25.917,19.433,26.534,18.65,26.534z M18.65,21.809c-0.784,0-1.418-0.616-1.418-1.378
			c0-0.761,0.635-1.377,1.418-1.377c0.783,0,1.418,0.616,1.418,1.377C20.068,21.192,19.433,21.809,18.65,21.809z M24.486,31.259
			c-0.783,0-1.418-0.616-1.418-1.378c0-0.761,0.635-1.378,1.418-1.378c0.783,0,1.417,0.617,1.417,1.378
			C25.902,30.643,25.269,31.259,24.486,31.259z M24.486,26.534c-0.783,0-1.418-0.617-1.418-1.378c0-0.762,0.635-1.378,1.418-1.378
			c0.783,0,1.417,0.616,1.417,1.378C25.902,25.917,25.269,26.534,24.486,26.534z M24.486,21.809c-0.783,0-1.418-0.616-1.418-1.378
			c0-0.761,0.635-1.377,1.418-1.377c0.783,0,1.417,0.616,1.417,1.377C25.902,21.192,25.269,21.809,24.486,21.809z M30.321,31.259
			c-0.783,0-1.417-0.616-1.417-1.378c0-0.761,0.634-1.378,1.417-1.378c0.782,0,1.417,0.617,1.417,1.378
			C31.738,30.643,31.104,31.259,30.321,31.259z M30.321,26.534c-0.783,0-1.417-0.617-1.417-1.378c0-0.762,0.634-1.378,1.417-1.378
			c0.782,0,1.417,0.616,1.417,1.378C31.738,25.917,31.104,26.534,30.321,26.534z M30.321,21.809c-0.783,0-1.417-0.616-1.417-1.378
			c0-0.761,0.634-1.377,1.417-1.377c0.782,0,1.417,0.616,1.417,1.377C31.738,21.192,31.104,21.809,30.321,21.809z"/>
	</g>
</g>
</svg>
